<svg id="Layer_1" data-name="Layer 1" xmlns="http://www.w3.org/2000/svg" viewBox="0 0 684.78 273">
    <defs>
        <style>.cls-1{font-size:12px;fill:#231f20;}.cls-1,.cls-15,.cls-17,.cls-20,.cls-32{font-family:BryantPro-Regular,
            Bryant
            Pro;}.cls-2{letter-spacing:0em;}.cls-3{letter-spacing:-0.07em;}.cls-4{letter-spacing:-0.02em;}.cls-5{fill:#ffd228;}.cls-14,.cls-6{fill:none;stroke:#ec008c;}.cls-14,.cls-39,.cls-6{stroke-miterlimit:10;}.cls-7{font-size:6.95px;fill:#424546;letter-spacing:0.24em;}.cls-18,.cls-24,.cls-7,.cls-9{font-family:BryantPro-Medium,
            Bryant
            Pro;font-weight:500;}.cls-8{fill:#fff;}.cls-23,.cls-8{fill-rule:evenodd;}.cls-9{font-size:8px;fill:#434546;}.cls-10{letter-spacing:-0.01em;}.cls-11{letter-spacing:-0.02em;}.cls-12{letter-spacing:0em;}.cls-13{letter-spacing:0em;}.cls-14{stroke-width:0.5px;}.cls-15,.cls-16{font-size:6.3px;letter-spacing:0.02em;}.cls-15,.cls-16,.cls-17,.cls-18,.cls-20,.cls-24,.cls-32,.cls-38{fill:#4d4d4f;}.cls-16,.cls-21{font-family:NotoSansSC-Light-83pv-RKSJ-H,
            Noto Sans
            SC;}.cls-17{font-size:5.85px;letter-spacing:0.03em;}.cls-18{font-size:11px;letter-spacing:0.01em;}.cls-19{font-family:NotoSansSC-Regular-83pv-RKSJ-H,
            Noto Sans
            SC;font-weight:400;letter-spacing:0.01em;}.cls-20{font-size:7px;letter-spacing:0.02em;}.cls-22{fill:#facf1b;}.cls-23{fill:#ffd200;}.cls-24{font-size:8.99px;letter-spacing:0.1em;}.cls-25{letter-spacing:0.1em;}.cls-26{letter-spacing:0.01em;}.cls-27{letter-spacing:0.1em;}.cls-28{letter-spacing:0.08em;}.cls-29{letter-spacing:0.1em;}.cls-30{letter-spacing:0.09em;}.cls-31{letter-spacing:0em;}.cls-32{font-size:5.32px;letter-spacing:0.26em;}.cls-33{letter-spacing:0.26em;}.cls-34{letter-spacing:0.25em;}.cls-35{letter-spacing:0.26em;}.cls-36{letter-spacing:0.27em;}.cls-37{letter-spacing:0em;}.cls-39{fill:#4e4e4f;stroke:#4e4e4f;stroke-width:0.1px;}
        </style>
    </defs>
    <text class="cls-1" transform="translate(29.66 36.56)">
        <tspan class="cls-2">B</tspan>
        <tspan x="7.75" y="0">ack</tspan>
    </text>
    <text class="cls-1" transform="translate(399 37.29)">
        <tspan class="cls-3">F</tspan>
        <tspan class="cls-4" x="5.89" y="0">r</tspan>
        <tspan x="9.65" y="0">ont</tspan>
    </text>
    <rect class="cls-5" x="29.7" y="69.26" width="270" height="174.12"/>
    <rect class="cls-6" x="37.14" y="81.31" width="255.12" height="153.07"/>
    <text class="cls-7" transform="translate(116.07 215.23) scale(1 1.11)">www.mediatropy.cn</text>
    <text class="cls-7" transform="translate(112.07 223.16) scale(1 1.11)">www.mediatropy.com</text>
    <polygon class="cls-8" points="187.49 144.71 165.85 157.21 165.85 132.2 187.49 144.71"/>
    <polygon class="cls-8" points="161.52 130.17 139.89 142.68 139.89 117.66 161.52 130.17"/>
    <polygon class="cls-8" points="141.58 144.71 163.21 132.2 163.21 157.21 141.58 144.71"/>
    <polygon class="cls-8" points="213.45 129.51 191.82 142.02 191.82 117.01 213.45 129.51"/>
    <polygon class="cls-8" points="213.45 158.73 191.82 171.24 191.82 146.22 213.45 158.73"/>
    <polygon class="cls-8" points="193.84 144.03 215.48 131.52 215.48 156.54 193.84 144.03"/>
    <polygon class="cls-8" points="193.84 115.13 215.48 102.63 215.48 127.64 193.84 115.13"/>
    <polygon class="cls-8" points="135.56 114.96 113.93 127.47 113.93 102.45 135.56 114.96"/>
    <polygon class="cls-8" points="135.56 144.03 113.93 156.54 113.93 131.52 135.56 144.03"/>
    <polygon class="cls-8" points="115.62 158.73 137.25 146.22 137.25 171.24 115.62 158.73"/>
    <polygon class="cls-8" points="115.62 129.5 137.25 116.99 137.25 142 115.62 129.5"/>
    <polygon class="cls-8" points="167.54 130.17 189.18 117.66 189.18 142.68 167.54 130.17"/>
    <text class="cls-9" transform="translate(85.52 198)">Singapo
        <tspan class="cls-10" x="29.35" y="0">r</tspan>
        <tspan x="32.06" y="0" xml:space="preserve">e  |  Hong </tspan>
        <tspan class="cls-11" x="69.61" y="0">K</tspan>
        <tspan x="74.78" y="0" xml:space="preserve">ong  |  </tspan>
        <tspan class="cls-12" x="99.96" y="0">B</tspan>
        <tspan class="cls-13" x="105.25" y="0" xml:space="preserve">ali  |  Shanghai</tspan>
    </text>
    <rect class="cls-14" x="399" y="80.09" width="255.12" height="153.07"/>
    <text class="cls-15 user-phone" transform="translate(551.54 150.75) scale(1 1.11)">+86 185 0214 4416</text>
    <text class="cls-15 user-wechat" transform="translate(551.54 161.25) scale(1 1.11)">GemmaZhu_luveSTUDY</text>
    <text class="cls-16 address-4" transform="translate(551.54 204.58) scale(1 1.11)">上海市徐汇区龙兰路277号</text>
    <text class="cls-16 address-5" transform="translate(551.54 214.73) scale(1 1.11)">东航滨江 T2座 5楼</text>
    <text class="cls-17 address-1" transform="translate(551.54 180.87) scale(1 1.11)">Donghangbingjiang Building T2,
        <tspan class="address-2" x="0" y="6.46">5 Floor, No.277 Longlan Rd,</tspan>
        <tspan class="address-3" x="0" y="12.92">Xuhui District, Shanghai</tspan>
    </text>
    <text class="cls-15 user-skype" transform="translate(551.54 224.41) scale(1 1.11)">stephanie.yoyo.zhu</text>
    <text class="" transform="translate(414.08 153.46)">
        <tspan class="cls-18 user-name1" x="0" dy="1em">Zhu Gemma 朱佳雯</tspan>
        <tspan class="cls-18 user-name2" x="0" dy="1em"></tspan>
        <tspan class="cls-20 user-title1" x="0" dy="1.3em">Digital Account Manager</tspan>
        <tspan class="cls-21 user-title2" x="0" dy="1em">数字客户经理</tspan>
    </text>

    <polygon class="cls-22" points="545.03 146.79 543.54 149.37 546.52 149.37 545.03 146.79"/>
    <polygon class="cls-22" points="545.03 157.79 543.54 160.37 546.52 160.37 545.03 157.79"/>
    <polygon class="cls-22" points="545.03 167.79 543.54 170.37 546.52 170.37 545.03 167.79"/>
    <polygon class="cls-22" points="545.03 177.79 543.54 180.37 546.52 180.37 545.03 177.79"/>
    <polygon class="cls-22" points="545.03 220.79 543.54 223.37 546.52 223.37 545.03 220.79"/>
    <polygon class="cls-23" points="443.75 110.77 435.17 115.73 435.17 105.81 443.75 110.77"/>
    <polygon class="cls-23" points="433.45 105 424.87 109.96 424.87 100.05 433.45 105"/>
    <polygon class="cls-23" points="425.55 110.77 434.12 105.81 434.12 115.73 425.55 110.77"/>
    <polygon class="cls-23" points="454.04 104.75 445.46 109.7 445.46 99.79 454.04 104.75"/>
    <polygon class="cls-23" points="454.04 116.33 445.46 121.29 445.46 111.37 454.04 116.33"/>
    <polygon class="cls-23" points="446.27 110.5 454.85 105.54 454.85 115.46 446.27 110.5"/>
    <polygon class="cls-23" points="446.27 99.04 454.85 94.08 454.85 104 446.27 99.04"/>
    <polygon class="cls-23" points="423.16 98.97 414.58 103.93 414.58 94.01 423.16 98.97"/>
    <polygon class="cls-23" points="423.16 110.5 414.58 115.46 414.58 105.54 423.16 110.5"/>
    <polygon class="cls-23" points="415.25 116.33 423.83 111.37 423.83 121.29 415.25 116.33"/>
    <polygon class="cls-23" points="415.25 104.74 423.83 99.78 423.83 109.69 415.25 104.74"/>
    <polygon class="cls-23" points="435.84 105 444.42 100.05 444.42 109.96 435.84 105"/>
    <text class="cls-24" transform="translate(460.88 108.74) scale(1 1.11)">M
        <tspan class="cls-25" x="8.64" y="0">E</tspan>
        <tspan x="14.97" y="0">DI</tspan>
        <tspan class="cls-26" x="25.7" y="0">A</tspan>
        <tspan class="cls-27" x="32.18" y="0">T</tspan>
        <tspan class="cls-28" x="38.6" y="0">R</tspan>
        <tspan class="cls-29" x="45.66" y="0">O</tspan>
        <tspan class="cls-30" x="53.61" y="0">P</tspan>
        <tspan class="cls-31" x="60.32" y="0">Y</tspan>
    </text>
    <text class="cls-32" transform="translate(461.23 115.36) scale(1 1.11)">Di
        <tspan class="cls-33" x="7.61" y="0">gi</tspan>
        <tspan x="14.68" y="0">tal</tspan>
        <tspan class="cls-34" x="24.46" y="0" xml:space="preserve"> A</tspan>
        <tspan class="cls-35" x="32.52" y="0">gen</tspan>
        <tspan class="cls-36" x="45.66" y="0">c</tspan>
        <tspan class="cls-37" x="49.78" y="0">y</tspan>
    </text>
    <text class="cls-15 user-email" transform="translate(551.54 171.54) scale(1 1.11)">gemma.zhu@mediatropy.com</text>
    <path class="cls-38"
          d="M539.07,171.39h-4.38a.58.58,0,0,1-.58-.58v-3.18a.57.57,0,0,1,.58-.57h4.38a.57.57,0,0,1,.57.57v3.18a.58.58,0,0,1-.57.58m-4.38-4.18a.42.42,0,0,0-.43.42v3.18a.43.43,0,0,0,.43.43h4.38a.42.42,0,0,0,.42-.43v-3.18a.42.42,0,0,0-.42-.42Zm4.38,4h-4.38a.38.38,0,0,1-.38-.38v-3.18a.37.37,0,0,1,.38-.37h4.38a.37.37,0,0,1,.37.37v3.18a.38.38,0,0,1-.37.38m-4.38-3.78a.22.22,0,0,0-.23.22v3.18a.23.23,0,0,0,.23.23h4.38a.22.22,0,0,0,.22-.23v-3.18a.22.22,0,0,0-.22-.22Z"/>
    <path class="cls-38"
          d="M539,167.55l-1.89,1.64a.38.38,0,0,1-.47,0l-1.89-1.64a.1.1,0,0,0-.14,0,.09.09,0,0,0,0,.13l1.89,1.64a.59.59,0,0,0,.37.13.59.59,0,0,0,.36-.13l1.89-1.64a.09.09,0,0,0,0-.13.1.1,0,0,0-.14,0"/>
    <path class="cls-38"
          d="M536.87,169.54a.61.61,0,0,1-.41-.15l-1.89-1.63a.17.17,0,0,1-.06-.12.2.2,0,0,1,0-.13.18.18,0,0,1,.25,0l1.89,1.63a.32.32,0,0,0,.37,0L539,167.5a.17.17,0,0,1,.25,0,.16.16,0,0,1,0,.12.17.17,0,0,1-.06.12l-1.89,1.63a.62.62,0,0,1-.42.15m-2.18-1.94h0v0l1.89,1.63a.52.52,0,0,0,.63,0l1.9-1.65s0,0,0,0l-1.89,1.63a.44.44,0,0,1-.57,0l-1.89-1.63h0"/>
    <path class="cls-38"
          d="M538.4,152.16h-3.1a.72.72,0,0,1-.7-.73V145.5a.72.72,0,0,1,.7-.73h3.1a.82.82,0,0,1,.58.21.67.67,0,0,1,.17.51v.3l0,5.65a.72.72,0,0,1-.71.72m-3.1-7a.38.38,0,0,0-.37.39v5.93a.39.39,0,0,0,.37.4h3.1a.39.39,0,0,0,.37-.4l0-5.65h0v-.3a.36.36,0,0,0-.08-.27.5.5,0,0,0-.34-.1Z"/>
    <path class="cls-38" d="M537.19,151.43h-.68a.17.17,0,0,1,0-.34h.68a.17.17,0,0,1,0,.34"/>
    <path class="cls-38" d="M538.82,150.68h-4a.17.17,0,0,1,0-.34h4a.17.17,0,0,1,0,.34"/>
    <path class="cls-38" d="M538.89,146h-4a.17.17,0,0,1,0-.34h4a.17.17,0,0,1,0,.34"/>
    <path class="cls-38"
          d="M536.83,224a2.47,2.47,0,0,1-.63-.08,1.49,1.49,0,0,1-.74-.5.66.66,0,0,1-.15-.42.46.46,0,0,1,.66-.41.89.89,0,0,1,.33.27.74.74,0,0,0,.75.22.28.28,0,0,0,.19-.14c.06-.07,0-.11,0-.16a.81.81,0,0,0-.31-.13l-.2,0a3,3,0,0,1-.63-.19,1.61,1.61,0,0,1-.29-.15.93.93,0,0,1-.34-1.23,1.16,1.16,0,0,1,1.06-.73h.23a1.62,1.62,0,0,1,1.17.4.6.6,0,0,1,.25.63.42.42,0,0,1-.28.33.44.44,0,0,1-.43-.09l-.13-.11a1.48,1.48,0,0,0-.29-.22.53.53,0,0,0-.57,0,.46.46,0,0,0-.07.07.12.12,0,0,0,0,.1.22.22,0,0,0,.08.09,1.13,1.13,0,0,0,.34.1l.13,0H537a3.12,3.12,0,0,1,.81.28,1,1,0,0,1,.56.8.93.93,0,0,1-.31.81,1.5,1.5,0,0,1-1.09.46h-.09m-1.07-1.14-.06,0a.14.14,0,0,0-.07.13.29.29,0,0,0,.07.2,1.16,1.16,0,0,0,.59.4,2,2,0,0,0,.63.07,1.17,1.17,0,0,0,.86-.36.66.66,0,0,0,.23-.55.74.74,0,0,0-.41-.56,2.44,2.44,0,0,0-.72-.24l-.19-.05a1.13,1.13,0,0,1-.42-.13.44.44,0,0,1-.24-.31.43.43,0,0,1,.12-.38l.13-.12a.88.88,0,0,1,.91,0,2.13,2.13,0,0,1,.34.25l.12.11a.14.14,0,0,0,.13,0,.13.13,0,0,0,.07-.11c0-.09,0-.17-.15-.31a1.33,1.33,0,0,0-1-.32h-.2a.88.88,0,0,0-.8.53.62.62,0,0,0,.24.85,1.27,1.27,0,0,0,.23.12,2.58,2.58,0,0,0,.56.16l.21,0a1.13,1.13,0,0,1,.43.19.41.41,0,0,1,.1.6.63.63,0,0,1-.41.28,1,1,0,0,1-1-.33.77.77,0,0,0-.22-.19.13.13,0,0,0-.08,0"/>
    <path class="cls-38"
          d="M538.07,225.1a1.48,1.48,0,0,1-.74-.19.42.42,0,0,0-.2,0,2.69,2.69,0,0,1-3-2.26,2.51,2.51,0,0,1,0-.73.31.31,0,0,0,0-.2,1.7,1.7,0,0,1,1.09-2.43,1.52,1.52,0,0,1,1.15.12.58.58,0,0,0,.33.05,2.61,2.61,0,0,1,2.19.89,2.72,2.72,0,0,1,.71,1.89v.06c0,.11,0,.24.09.4l0,.07a1.7,1.7,0,0,1-.07,1.46,1.72,1.72,0,0,1-1.18.87l-.32,0m-.88-.54a.57.57,0,0,1,.29.07,1.31,1.31,0,0,0,.85.13,1.39,1.39,0,0,0,1-.71,1.41,1.41,0,0,0,.05-1.19l0-.06a.92.92,0,0,1-.11-.61,2.37,2.37,0,0,0-.63-1.65,2.33,2.33,0,0,0-1.93-.79.88.88,0,0,1-.51-.09,1.18,1.18,0,0,0-.91-.09,1.39,1.39,0,0,0-.92.77,1.37,1.37,0,0,0,0,1.2.67.67,0,0,1,.07.4,2.33,2.33,0,0,0,0,.64,2.39,2.39,0,0,0,2.65,2h.1"/>
    <path class="cls-39"
          d="M536.37,157.29a.48.48,0,1,0,0,1,.48.48,0,1,0,0-1Zm0,.72a.25.25,0,0,1-.25-.25.25.25,0,0,1,.5,0A.25.25,0,0,1,536.37,158Z"/>
    <path class="cls-39"
          d="M535,157.29a.48.48,0,1,0,.48.47A.47.47,0,0,0,535,157.29Zm0,.72a.25.25,0,0,1-.25-.25.25.25,0,0,1,.5,0A.25.25,0,0,1,535,158Z"/>
    <path class="cls-39"
          d="M540.49,160.07a1.91,1.91,0,0,0-.72-1.49.11.11,0,1,0-.14.17,1.7,1.7,0,0,1-.11,2.72.11.11,0,0,0,0,.12l.12.56-.59-.36a.13.13,0,0,0-.09,0,2.24,2.24,0,0,1-.73.12,1.84,1.84,0,1,1,0-3.66,2.28,2.28,0,0,1,1.06.26.12.12,0,0,0,.16-.05.11.11,0,0,0,0-.15,2.47,2.47,0,0,0-1.17-.29h0a.86.86,0,0,0,0-.16,2.5,2.5,0,0,0-5,0,1.91,1.91,0,0,0,.14.74.11.11,0,0,0,.15.06.12.12,0,0,0,.06-.15,1.84,1.84,0,0,1-.13-.65,2.27,2.27,0,0,1,4.51,0,1.09,1.09,0,0,1,0,.18,2.18,2.18,0,0,0-2,1.8h-.21a2.43,2.43,0,0,1-1.16-.29.11.11,0,0,0-.11,0l-.52.28.18-.49a.11.11,0,0,0,0-.13,1.75,1.75,0,0,1-.28-.33.11.11,0,0,0-.16,0,.1.1,0,0,0,0,.15,2,2,0,0,0,.26.32l-.26.7a.11.11,0,0,0,.16.14l.73-.39a2.67,2.67,0,0,0,1.22.28h.19a2.19,2.19,0,0,0,2.3,2.06,2.67,2.67,0,0,0,.75-.11l.77.46a.12.12,0,0,0,.17-.13l-.17-.74A2,2,0,0,0,540.49,160.07Z"/>
    <path class="cls-39"
          d="M537.46,159.59a.49.49,0,0,0-.48.48.48.48,0,0,0,1,0A.49.49,0,0,0,537.46,159.59Zm0,.73a.25.25,0,1,1,.25-.25A.25.25,0,0,1,537.46,160.32Z"/>
    <path class="cls-39"
          d="M538.92,159.59a.48.48,0,0,0-.48.48.47.47,0,0,0,.48.48.48.48,0,0,0,.48-.48A.49.49,0,0,0,538.92,159.59Zm0,.73a.25.25,0,1,1,.25-.25A.25.25,0,0,1,538.92,160.32Z"/>
</svg>