<svg id="Layer_1" xmlns="http://www.w3.org/2000/svg" xmlns:xlink="http://www.w3.org/1999/xlink"
     viewBox="0 0 675.13 212.82">
    <defs>
        <style>
            .cls-1,.cls-21,.cls-3{fill:none;}.cls-2{fill:#ffd228;}.cls-21,.cls-3{stroke:#ec008c;stroke-miterlimit:10;}.cls-4{font-size:6.95px;fill:#424546;}.cls-16,.cls-31,.cls-36,.cls-4{font-family:BryantPro-Medium,
            Bryant
            Pro;font-weight:500;}.cls-5{letter-spacing:0.24em;}.cls-6{letter-spacing:0.17em;}.cls-7{letter-spacing:0.24em;}.cls-8{letter-spacing:0.24em;}.cls-9{letter-spacing:0.24em;}.cls-10{letter-spacing:0.25em;}.cls-11{letter-spacing:0.23em;}.cls-12{letter-spacing:0.24em;}.cls-13{letter-spacing:0.17em;}.cls-14{letter-spacing:0.22em;}.cls-15{fill:#fff;}.cls-15,.cls-35{fill-rule:evenodd;}.cls-16{font-size:8px;fill:#434546;}.cls-17{letter-spacing:-0.01em;}.cls-18{letter-spacing:-0.02em;}.cls-19{letter-spacing:0em;}.cls-20{letter-spacing:0em;}.cls-21{stroke-width:0.5px;}.cls-22,.cls-23{font-size:6.3px;}.cls-22,.cls-23,.cls-30,.cls-31,.cls-32,.cls-36,.cls-44,.cls-53,.cls-54{fill:#4d4d4f;}.cls-22,.cls-23,.cls-30,.cls-32,.cls-44{font-family:BryantPro-Regular,
            Bryant
            Pro;}.cls-22,.cls-24{letter-spacing:0.02em;}.cls-25{letter-spacing:0.02em;}.cls-26{letter-spacing:0.02em;}.cls-27{letter-spacing:0.02em;}.cls-28{letter-spacing:0.02em;}.cls-29{letter-spacing:0.03em;}.cls-30{font-size:5.85px;letter-spacing:0.03em;}.cls-31{font-size:11px;letter-spacing:0em;}.cls-32{font-size:7px;letter-spacing:0.02em;}.cls-33{clip-path:url(#clip-path);}.cls-34{fill:#facf1b;}.cls-35{fill:#ffd200;}.cls-36{font-size:8.99px;letter-spacing:0.1em;}.cls-37{letter-spacing:0.1em;}.cls-38{letter-spacing:0.01em;}.cls-39{letter-spacing:0.1em;}.cls-40{letter-spacing:0.08em;}.cls-41{letter-spacing:0.1em;}.cls-42{letter-spacing:0.09em;}.cls-43{letter-spacing:0em;}.cls-44{font-size:5.32px;letter-spacing:0.26em;}.cls-45{letter-spacing:0.26em;}.cls-46{letter-spacing:0.25em;}.cls-47{letter-spacing:0.26em;}.cls-48{letter-spacing:0.27em;}.cls-49{letter-spacing:0em;}.cls-50{letter-spacing:0.02em;}.cls-51{letter-spacing:0.03em;}.cls-52{letter-spacing:0.04em;}.cls-54{font-size:6px;font-family:KozGoPr6N-Regular-83pv-RKSJ-H,
            Kozuka Gothic Pr6N;}.cls-55{letter-spacing:0.02em;}
        </style>
        <clipPath id="clip-path">
            <rect class="cls-1" y="-454.95" width="841.89" height="1004.7"/>
        </clipPath>
    </defs>
    <rect class="cls-2" x="26.7" y="23.02" width="270" height="174.12"/>
    <rect class="cls-3" x="34.14" y="35.08" width="255.12" height="153.07"/>
    <text class="cls-4" transform="translate(113.07 168.99) scale(1 1.11)">
        <tspan class="cls-5">ww</tspan>
        <tspan class="cls-6" x="12.78" y="0">w</tspan>
        <tspan class="cls-7" x="18.69" y="0">.</tspan>
        <tspan class="cls-5" x="22.19" y="0">m</tspan>
        <tspan class="cls-8" x="30" y="0">ed</tspan>
        <tspan class="cls-5" x="41.08" y="0">i</tspan>
        <tspan class="cls-9" x="44.47" y="0">a</tspan>
        <tspan class="cls-10" x="49.75" y="0">t</tspan>
        <tspan class="cls-11" x="53.87" y="0">r</tspan>
        <tspan class="cls-10" x="57.92" y="0">o</tspan>
        <tspan class="cls-12" x="63.46" y="0">p</tspan>
        <tspan class="cls-13" x="69.15" y="0">y</tspan>
        <tspan class="cls-14" x="73.52" y="0">.</tspan>
        <tspan class="cls-8" x="76.89" y="0">c</tspan>
        <tspan class="cls-5" x="82.07" y="0">o</tspan>
        <tspan x="87.61" y="0">m</tspan>
    </text>
    <polygon class="cls-15" points="184.49 98.47 162.85 110.98 162.85 85.97 184.49 98.47"/>
    <polygon class="cls-15" points="158.52 83.94 136.89 96.44 136.89 71.43 158.52 83.94"/>
    <polygon class="cls-15" points="138.58 98.47 160.21 85.97 160.21 110.98 138.58 98.47"/>
    <polygon class="cls-15" points="210.45 83.28 188.82 95.79 188.82 70.77 210.45 83.28"/>
    <polygon class="cls-15" points="210.45 112.5 188.82 125 188.82 99.99 210.45 112.5"/>
    <polygon class="cls-15" points="190.84 97.8 212.48 85.29 212.48 110.3 190.84 97.8"/>
    <polygon class="cls-15" points="190.84 68.9 212.48 56.39 212.48 81.41 190.84 68.9"/>
    <polygon class="cls-15" points="132.56 68.72 110.93 81.23 110.93 56.22 132.56 68.72"/>
    <polygon class="cls-15" points="132.56 97.8 110.93 110.3 110.93 85.29 132.56 97.8"/>
    <polygon class="cls-15" points="112.62 112.5 134.25 99.99 134.25 125 112.62 112.5"/>
    <polygon class="cls-15" points="112.62 83.26 134.25 70.75 134.25 95.77 112.62 83.26"/>
    <polygon class="cls-15" points="164.54 83.94 186.18 71.43 186.18 96.44 164.54 83.94"/>
    <text class="cls-16" transform="translate(82.52 151.77)">Singapo
        <tspan class="cls-17" x="29.35" y="0">r</tspan>
        <tspan x="32.06" y="0" xml:space="preserve">e  |  Hong </tspan>
        <tspan class="cls-18" x="69.61" y="0">K</tspan>
        <tspan x="74.78" y="0" xml:space="preserve">ong  |  </tspan>
        <tspan class="cls-19" x="99.96" y="0">B</tspan>
        <tspan class="cls-20" x="105.25" y="0" xml:space="preserve">ali  |  Shanghai</tspan>
    </text>
    <rect class="cls-21" x="396" y="33.86" width="255.12" height="153.07"/>
    <rect class="cls-1" y="-454.95" width="841.89" height="1004.7"/>
    <text class="cls-22 user-phone" transform="translate(538.54 114.51) scale(1 1.11)"></text>
    <text class="cls-23" transform="translate(538.54 125.01) scale(1 1.11)">
        <tspan class="cls-24">+</tspan>
        <tspan class="cls-25" x="3.69" y="0">6</tspan>
        <tspan class="cls-24" x="7.76" y="0">5</tspan>
        <tspan class="cls-26" x="13.96" y="0">3</tspan>
        <tspan class="cls-27" x="18.04" y="0">1</tspan>
        <tspan class="cls-24" x="20.48" y="0">52 0</tspan>
        <tspan class="cls-28" x="35.25" y="0">6</tspan>
        <tspan class="cls-24" x="39.34" y="0">3</tspan>
        <tspan class="cls-27" x="43.44" y="0">4</tspan>
        <tspan class="cls-29" x="47.61" y="0" xml:space="preserve"> (SG)</tspan>

    </text>
    <text class="cls-22 user-email" transform="translate(538.54 145.35) scale(1 1.11)"></text>
    <text class="cls-30 address-1" transform="translate(538.54 155.5) scale(1 1.11)">29A Cuppage Road #02-00</text>
    <text class="cls-30 address-2" transform="translate(538.54 163.3) scale(1 1.11)">Cuppage Terrace, 229456, Singapore</text>
    <text class="cls-22 user-skype" transform="translate(538.54 174.18) scale(1 1.11)"></text>
    <text class="" transform="translate(411.08 117.22)">
        <tspan class="cls-31 user-name1" x="0" dy="1em"></tspan>
        <tspan class="cls-31 user-name2" x="0" dy="1em"></tspan>
        <tspan class="cls-32 user-title1" x="0" dy="1.3em"></tspan>
        <tspan class="cls-32 user-title2" x="0" dy="1em"></tspan>
    </text>

    <g class="cls-33">
        <polygon class="cls-34" points="532.03 110.55 530.54 113.14 533.52 113.13 532.03 110.55"/>
        <polygon class="cls-34" points="532.03 121.55 530.54 124.14 533.52 124.13 532.03 121.55"/>
        <polygon class="cls-34" points="532.03 141.55 530.54 144.14 533.52 144.13 532.03 141.55"/>
        <polygon class="cls-34" points="532.03 151.55 530.54 154.14 533.52 154.13 532.03 151.55"/>
        <polygon class="cls-34" points="532.03 170.55 530.54 173.14 533.52 173.13 532.03 170.55"/>
        <polygon class="cls-35" points="440.75 64.53 432.17 69.49 432.17 59.57 440.75 64.53"/>
        <polygon class="cls-35" points="430.45 58.77 421.87 63.73 421.87 53.81 430.45 58.77"/>
        <polygon class="cls-35" points="422.55 64.53 431.12 59.57 431.12 69.49 422.55 64.53"/>
        <polygon class="cls-35" points="451.04 58.51 442.46 63.47 442.46 53.55 451.04 58.51"/>
        <polygon class="cls-35" points="451.04 70.09 442.46 75.05 442.46 65.14 451.04 70.09"/>
        <polygon class="cls-35" points="443.27 64.27 451.85 59.31 451.85 69.22 443.27 64.27"/>
        <polygon class="cls-35" points="443.27 52.81 451.85 47.85 451.85 57.77 443.27 52.81"/>
        <polygon class="cls-35" points="420.16 52.74 411.58 57.7 411.58 47.78 420.16 52.74"/>
        <polygon class="cls-35" points="420.16 64.27 411.58 69.22 411.58 59.31 420.16 64.27"/>
        <polygon class="cls-35" points="412.25 70.09 420.83 65.14 420.83 75.05 412.25 70.09"/>
        <polygon class="cls-35" points="412.25 58.5 420.83 53.54 420.83 63.46 412.25 58.5"/>
        <polygon class="cls-35" points="432.84 58.77 441.42 53.81 441.42 63.73 432.84 58.77"/>
    </g>
    <text class="cls-36" transform="translate(457.88 62.51) scale(1 1.11)">M
        <tspan class="cls-37" x="8.64" y="0">E</tspan>
        <tspan x="14.97" y="0">DI</tspan>
        <tspan class="cls-38" x="25.7" y="0">A</tspan>
        <tspan class="cls-39" x="32.18" y="0">T</tspan>
        <tspan class="cls-40" x="38.6" y="0">R</tspan>
        <tspan class="cls-41" x="45.66" y="0">O</tspan>
        <tspan class="cls-42" x="53.61" y="0">P</tspan>
        <tspan class="cls-43" x="60.32" y="0">Y</tspan>
    </text>
    <text class="cls-44" transform="translate(458.23 69.12) scale(1 1.11)">Di
        <tspan class="cls-45" x="7.61" y="0">gi</tspan>
        <tspan x="14.68" y="0">tal</tspan>
        <tspan class="cls-46" x="24.46" y="0" xml:space="preserve"> A</tspan>
        <tspan class="cls-47" x="32.52" y="0">gen</tspan>
        <tspan class="cls-48" x="45.66" y="0">c</tspan>
        <tspan class="cls-49" x="49.78" y="0">y</tspan>
    </text>
    <text class="cls-23" transform="translate(538.54 135.3) scale(1 1.11)">
        <tspan class="cls-24">+852</tspan>
        <tspan class="cls-25" x="18.26" y="0">2</tspan>
        <tspan class="cls-27" x="22.32" y="0">1</tspan>
        <tspan class="cls-50" x="24.76" y="0">2</tspan>
        <tspan class="cls-27" x="28.82" y="0">7</tspan>
        <tspan class="cls-29" x="32.47" y="0" xml:space="preserve"> 0</tspan>
        <tspan class="cls-51" x="38.98" y="0">6</tspan>
        <tspan class="cls-52" x="43.13" y="0">4</tspan>
        <tspan x="47.37" y="0">2</tspan>
    </text>
    <g class="cls-33">
        <path class="cls-53"
              d="M526.73,124.65a.39.39,0,0,0-.2-.27l-1.26-.87a.47.47,0,0,0-.22-.07.37.37,0,0,0-.31.16l-.33.46a.28.28,0,0,0,0,.13c-.13,0-.49,0-1.08-.59s-.85-1-.82-1.26c0,0,0,0,0,0a.11.11,0,0,0,.08,0L523,122a.39.39,0,0,0,.07-.53l-.9-1.23a.36.36,0,0,0-.6-.08,3,3,0,0,0-.47.58.49.49,0,0,0-.06.29,2.6,2.6,0,0,0,0,1.11,4.37,4.37,0,0,0,1.33,2.21,4.05,4.05,0,0,0,2.76,1.33,1.71,1.71,0,0,0,.62-.1.54.54,0,0,0,.27-.07,2.94,2.94,0,0,0,.56-.49.38.38,0,0,0,.11-.32m-.28.19a2.58,2.58,0,0,1-.5.43l-.06,0a1.5,1.5,0,0,1-.48-.29.1.1,0,1,0-.16.13,1,1,0,0,0,.31.24,1.92,1.92,0,0,1-.39,0,3.81,3.81,0,0,1-2.61-1.26c-1.63-1.58-1.32-3-1.28-3.14s0,0,0,0a.27.27,0,0,1,0-.17,2.45,2.45,0,0,1,.42-.53.26.26,0,0,1,.14-.07s.06,0,.15.11l.9,1.23a.18.18,0,0,1,0,.24l-.44.34h0a1.67,1.67,0,0,1-.33-.31.11.11,0,0,0-.15,0,.11.11,0,0,0,0,.15,1.52,1.52,0,0,0,.34.33c-.08.35.19.81.86,1.49a1.78,1.78,0,0,0,1.18.65.54.54,0,0,0,.22,0,.22.22,0,0,0,.05-.08v-.1l.32-.46a.18.18,0,0,1,.23,0l1.27.86a.24.24,0,0,1,.11.13.22.22,0,0,1-.07.16"/>
        <path class="cls-53"
              d="M525.17,125.7a4.07,4.07,0,0,1-2.81-1.35,4.42,4.42,0,0,1-1.35-2.24,2.81,2.81,0,0,1,0-1.14.5.5,0,0,1,.08-.31,2.88,2.88,0,0,1,.48-.6.47.47,0,0,1,.37-.14.51.51,0,0,1,.34.22l.9,1.23a.46.46,0,0,1-.09.64l-.45.34-.07,0c0,.17.15.51.8,1.16.49.49.81.57,1,.57a.3.3,0,0,1,0-.1l.33-.46a.47.47,0,0,1,.63-.11l1.26.87a.44.44,0,0,1,.23.32.48.48,0,0,1-.12.38,2.61,2.61,0,0,1-.59.5.52.52,0,0,1-.29.09h0a2.18,2.18,0,0,1-.63.09m-3.29-5.64a.37.37,0,0,0-.23.11,2.51,2.51,0,0,0-.45.56.43.43,0,0,0-.06.24h0a2.55,2.55,0,0,0,0,1.09,4.31,4.31,0,0,0,1.3,2.17,4,4,0,0,0,2.71,1.3,1.57,1.57,0,0,0,.59-.09h0a.51.51,0,0,0,.22-.07,2.68,2.68,0,0,0,.54-.46.35.35,0,0,0,.1-.26.35.35,0,0,0-.18-.23l-1.26-.86a.31.31,0,0,0-.42.06l-.33.47a.19.19,0,0,0,0,.08v.06h-.06c-.18,0-.56,0-1.15-.61s-.87-1-.83-1.32v0l.07,0,0,0,.45-.34a.31.31,0,0,0,.06-.43l-.9-1.23a.4.4,0,0,0-.24-.17h0m3.29,5.43a3.92,3.92,0,0,1-2.67-1.29,3.44,3.44,0,0,1-1.29-3.21.35.35,0,0,1,0-.23,2.6,2.6,0,0,1,.44-.54.3.3,0,0,1,.19-.09s.11,0,.2.14l.91,1.23a.25.25,0,0,1,0,.34l-.48.35h0l0,0a2.6,2.6,0,0,1-.35-.32s0,0,0,0h0a0,0,0,0,0,0,0,1.71,1.71,0,0,0,.33.31l0,0v0c-.08.31.19.76.85,1.42a1.68,1.68,0,0,0,1.12.63.37.37,0,0,0,.18,0s0,0,0,0a.07.07,0,0,0,0,0v-.07l.33-.47a.25.25,0,0,1,.34-.05l1.26.86a.28.28,0,0,1,.14.18.26.26,0,0,1-.08.22,2.57,2.57,0,0,1-.53.45l-.07,0h0a1.88,1.88,0,0,1-.51-.31,0,0,0,0,0,0,0,0,0,0,0,0,0,0,1,1,0,0,0,.28.21l.18.1-.2,0a1.64,1.64,0,0,1-.4,0m-3.29-5.21a.21.21,0,0,0-.1,0,2.4,2.4,0,0,0-.39.5.17.17,0,0,0,0,.13.2.2,0,0,1,0,.07c0,.15-.33,1.52,1.26,3.06a3.73,3.73,0,0,0,2.56,1.25h.18a.56.56,0,0,1-.16-.14.16.16,0,0,1,0-.13.15.15,0,0,1,.07-.12.19.19,0,0,1,.25,0,1.46,1.46,0,0,0,.42.26h0a2.22,2.22,0,0,0,.49-.42c.06-.07.05-.09.05-.09s0,0-.08-.09l-1.26-.86a.11.11,0,0,0-.13,0l-.3.43v0s0,0,0,.06a.16.16,0,0,1-.09.13.46.46,0,0,1-.25.06,1.85,1.85,0,0,1-1.23-.68c-.67-.67-1-1.14-.89-1.51a1.56,1.56,0,0,1-.32-.32.17.17,0,0,1,0-.25.14.14,0,0,1,.14,0,.19.19,0,0,1,.11.07,1.7,1.7,0,0,0,.27.26l.41-.31a.1.1,0,0,0,0-.13l-.91-1.23c0-.06-.07-.08-.08-.08"/>
        <path class="cls-53"
              d="M523.75,121.22a2.6,2.6,0,0,1,1.73,1.71.11.11,0,0,0,.1.08h0a.09.09,0,0,0,.07-.13,2.79,2.79,0,0,0-1.86-1.86.12.12,0,0,0-.14.07.13.13,0,0,0,.07.14"/>
        <path class="cls-53"
              d="M525.58,123.08a.17.17,0,0,1-.17-.13,2.54,2.54,0,0,0-1.68-1.66h0a.24.24,0,0,1-.11-.09.23.23,0,0,1,0-.14.24.24,0,0,1,.09-.11.17.17,0,0,1,.14,0,2.88,2.88,0,0,1,1.91,1.91.18.18,0,0,1-.11.22h-.06m-1.8-1.94a2.68,2.68,0,0,1,1.77,1.77s0,0,0,0,0,0,0,0a2.75,2.75,0,0,0-1.82-1.81h0s0,0,0,0,0,0,0,0,0,0,0,0"/>
        <path class="cls-53"
              d="M523.9,120.43a3.18,3.18,0,0,1,2.41,2.53.1.1,0,0,0,.1.09h0a.11.11,0,0,0,.09-.12,3.4,3.4,0,0,0-2.57-2.71.1.1,0,0,0-.13.08.12.12,0,0,0,.08.13"/>
        <path class="cls-53"
              d="M526.41,123.13a.19.19,0,0,1-.18-.15,3.11,3.11,0,0,0-2.35-2.48.17.17,0,0,1-.13-.22.18.18,0,0,1,.22-.14,3.5,3.5,0,0,1,2.62,2.77.18.18,0,0,1-.15.21Zm-2.49-2.78a3.27,3.27,0,0,1,2.46,2.6,0,0,0,0,0,0,0s0,0,0,0a3.33,3.33,0,0,0-2.51-2.65l0,0s0,0,0,0"/>
        <path class="cls-53"
              d="M526.07,140.9h-4.38a.49.49,0,0,0-.5.49v3.19a.5.5,0,0,0,.5.5h4.38a.5.5,0,0,0,.49-.5v-3.19a.49.49,0,0,0-.49-.49m.29,3.68a.29.29,0,0,1-.29.3h-4.38a.29.29,0,0,1-.3-.3v-3.19a.29.29,0,0,1,.3-.29h4.38a.29.29,0,0,1,.29.29Z"/>
        <path class="cls-53"
              d="M526.07,145.15h-4.38a.57.57,0,0,1-.58-.57V141.4a.58.58,0,0,1,.58-.58h4.38a.58.58,0,0,1,.57.58v3.18a.57.57,0,0,1-.57.57M521.69,141a.43.43,0,0,0-.43.43v3.18a.42.42,0,0,0,.43.42h4.38a.42.42,0,0,0,.42-.42V141.4a.42.42,0,0,0-.42-.43Zm4.38,4h-4.38a.37.37,0,0,1-.38-.37V141.4a.38.38,0,0,1,.38-.38h4.38a.38.38,0,0,1,.37.38v3.18a.37.37,0,0,1-.37.37m-4.38-3.78a.23.23,0,0,0-.23.23v3.18a.22.22,0,0,0,.23.22h4.38a.22.22,0,0,0,.22-.22V141.4a.22.22,0,0,0-.22-.23Z"/>
        <path class="cls-53"
              d="M526,141.32,524.11,143a.38.38,0,0,1-.47,0l-1.89-1.63a.11.11,0,0,0-.14,0,.1.1,0,0,0,0,.14l1.89,1.63a.54.54,0,0,0,.37.13.53.53,0,0,0,.36-.13l1.89-1.63a.1.1,0,0,0,0-.14.11.11,0,0,0-.14,0"/>
        <path class="cls-53"
              d="M523.87,143.31a.61.61,0,0,1-.41-.15l-1.89-1.63a.17.17,0,0,1-.06-.12.2.2,0,0,1,0-.13.19.19,0,0,1,.25,0l1.89,1.63a.29.29,0,0,0,.37,0l1.89-1.63a.18.18,0,0,1,.25,0,.2.2,0,0,1,0,.13.17.17,0,0,1-.06.12l-1.89,1.63a.62.62,0,0,1-.42.15m-2.18-1.94h0v0l1.89,1.64a.52.52,0,0,0,.63,0l1.9-1.65s0,0,0,0L524.16,143a.45.45,0,0,1-.57,0l-1.89-1.63h0"/>
    </g>
    <path class="cls-53"
          d="M593,132.4a6.6,6.6,0,0,0,0,.8,4.61,4.61,0,0,0,.15.72,5.93,5.93,0,0,0,.27.73,8.41,8.41,0,0,0,.44.81.21.21,0,0,1,0,.13.13.13,0,0,1,0,.09.1.1,0,0,1-.08,0,.12.12,0,0,1-.09,0,3.36,3.36,0,0,1-.43-.67,5.46,5.46,0,0,1-.31-.83,5,5,0,0,1-.19-.89,5.39,5.39,0,0,1-.07-.88,5.1,5.1,0,0,1,.46-2.2c.31-.67.52-1,.62-1a.12.12,0,0,1,.12.09.2.2,0,0,1,0,.17,6,6,0,0,0-.7,1.49A5.14,5.14,0,0,0,593,132.4Z"/>
    <text class="cls-54" transform="translate(594.62 134.55)">
        <tspan class="cls-55">香港</tspan>

    </text>
    <path class="cls-53"
          d="M608.31,132.4a5.14,5.14,0,0,0-.21-1.45,6,6,0,0,0-.7-1.49.2.2,0,0,1,0-.17.12.12,0,0,1,.12-.09c.1,0,.31.33.62,1a5.1,5.1,0,0,1,.46,2.2,7,7,0,0,1-.05.81,4.26,4.26,0,0,1-.16.79,5.71,5.71,0,0,1-.31.8,9.89,9.89,0,0,1-.48.87.14.14,0,0,1-.09.05.11.11,0,0,1-.08,0,.18.18,0,0,1,0-.1.21.21,0,0,1,0-.13c.17-.29.31-.56.43-.81a4.73,4.73,0,0,0,.28-.73,4.61,4.61,0,0,0,.15-.72A6.6,6.6,0,0,0,608.31,132.4Z"/>
    <g class="cls-33">
        <path class="cls-53"
              d="M525.4,115.93h-3.1a.72.72,0,0,1-.7-.73v-5.93a.71.71,0,0,1,.7-.73h3.1a.78.78,0,0,1,.58.21.66.66,0,0,1,.17.51v.29l0,5.65a.73.73,0,0,1-.71.73m-3.1-7.06a.39.39,0,0,0-.37.4v5.93a.39.39,0,0,0,.37.4h3.1a.39.39,0,0,0,.37-.4l0-5.65h0v-.29a.36.36,0,0,0-.08-.27.51.51,0,0,0-.34-.11Z"/>
        <path class="cls-53"
              d="M524.19,115.19h-.68a.16.16,0,0,1-.16-.17.16.16,0,0,1,.16-.16h.68a.17.17,0,0,1,.17.16.17.17,0,0,1-.17.17"/>
        <path class="cls-53"
              d="M525.82,114.44h-4a.16.16,0,0,1-.16-.16.16.16,0,0,1,.16-.17h4a.16.16,0,0,1,.16.17.16.16,0,0,1-.16.16"/>
        <path class="cls-53"
              d="M525.89,109.77h-4a.16.16,0,0,1-.16-.16.17.17,0,0,1,.16-.17h4a.17.17,0,0,1,.16.17.16.16,0,0,1-.16.16"/>
        <path class="cls-53"
              d="M523.83,173.77a2.08,2.08,0,0,1-.63-.09,1.47,1.47,0,0,1-.74-.49.68.68,0,0,1-.15-.42.46.46,0,0,1,.66-.42,1,1,0,0,1,.33.28.76.76,0,0,0,.75.22.28.28,0,0,0,.19-.14c.06-.08,0-.11,0-.17a.81.81,0,0,0-.31-.13l-.2,0a2.49,2.49,0,0,1-.63-.18,1.71,1.71,0,0,1-.29-.16.92.92,0,0,1-.34-1.23,1.17,1.17,0,0,1,1.06-.73h.23a1.62,1.62,0,0,1,1.17.4.59.59,0,0,1,.25.63.45.45,0,0,1-.28.33.46.46,0,0,1-.43-.09l-.13-.12A1.42,1.42,0,0,0,524,171a.51.51,0,0,0-.57,0,.19.19,0,0,0-.07.06.14.14,0,0,0,0,.11.15.15,0,0,0,.08.08,1.13,1.13,0,0,0,.34.11l.13,0H524a2.79,2.79,0,0,1,.81.28,1,1,0,0,1,.56.79,1,1,0,0,1-.31.82,1.54,1.54,0,0,1-1.09.46h-.09m-1.07-1.14h-.06a.17.17,0,0,0-.07.13.31.31,0,0,0,.07.21,1.22,1.22,0,0,0,.59.4,2,2,0,0,0,.63.06,1.17,1.17,0,0,0,.86-.35.68.68,0,0,0,.23-.56.76.76,0,0,0-.41-.56,2.77,2.77,0,0,0-.72-.24l-.19,0a1.69,1.69,0,0,1-.42-.13.47.47,0,0,1-.24-.32.44.44,0,0,1,.12-.38l.13-.11a.85.85,0,0,1,.91,0,2.13,2.13,0,0,1,.34.25l.12.11a.18.18,0,0,0,.13,0,.13.13,0,0,0,.07-.11c0-.09,0-.18-.15-.31a1.29,1.29,0,0,0-1-.32h-.2a.9.9,0,0,0-.8.53.62.62,0,0,0,.24.85,1.34,1.34,0,0,0,.23.13,2.58,2.58,0,0,0,.56.16l.21,0a1.3,1.3,0,0,1,.43.18.42.42,0,0,1,.1.61.61.61,0,0,1-.41.27,1.05,1.05,0,0,1-1-.32.82.82,0,0,0-.22-.2h-.08"/>
        <path class="cls-53"
              d="M525.07,174.87a1.48,1.48,0,0,1-.74-.19.33.33,0,0,0-.2,0,2.71,2.71,0,0,1-3-2.26,2.53,2.53,0,0,1,0-.73.35.35,0,0,0,0-.21,1.71,1.71,0,0,1,0-1.48,1.76,1.76,0,0,1,1.13-.95,1.57,1.57,0,0,1,1.15.13.58.58,0,0,0,.33,0,2.58,2.58,0,0,1,2.19.89,2.72,2.72,0,0,1,.71,1.89V172a.62.62,0,0,0,.09.41l0,.06a1.72,1.72,0,0,1-1.25,2.34l-.32,0m-.88-.54a.57.57,0,0,1,.29.07,1.24,1.24,0,0,0,.85.12,1.38,1.38,0,0,0,1-1.89l0-.06a.93.93,0,0,1-.11-.61,2.41,2.41,0,0,0-.63-1.66,2.33,2.33,0,0,0-1.93-.78.88.88,0,0,1-.51-.09,1.23,1.23,0,0,0-.91-.1,1.42,1.42,0,0,0-.92.77,1.39,1.39,0,0,0,0,1.21.67.67,0,0,1,.07.4,2.25,2.25,0,0,0,0,.63,2.38,2.38,0,0,0,2.65,2h.1"/>
    </g>
</svg>